<svg xmlns="http://www.w3.org/2000/svg" viewBox="0 0 220 65" width="220" height="65"><title>logo BWD baru 1</title><style>		.s0 { fill: #ff6a39 } 		.s1 { fill: #1a1a1a } 	</style><g><g id="full-colour"><g><path fill-rule="evenodd" class="s0" d="m78.2 61.7q-0.5 0-0.8-0.4-0.4-0.3-0.4-0.9 0-0.5 0.4-0.9 0.3-0.3 0.8-0.3 0.6 0 0.9 0.3 0.4 0.4 0.4 0.9 0 0.6-0.4 0.9-0.3 0.4-0.9 0.4zm6.6 0q-1 0-1.9-0.5-0.8-0.4-1.3-1.2-0.5-0.8-0.5-1.8 0-1 0.5-1.8 0.5-0.8 1.4-1.2 0.8-0.5 1.8-0.5 0.8 0 1.5 0.3 0.6 0.3 1.1 0.8l-1.3 1.3q-0.2-0.2-0.6-0.3-0.3-0.2-0.7-0.2-0.4 0-0.8 0.2-0.3 0.2-0.5 0.6-0.2 0.3-0.2 0.8 0 0.5 0.2 0.8 0.2 0.4 0.5 0.6 0.4 0.2 0.8 0.2 0.5 0 0.8-0.2 0.3-0.1 0.5-0.4l1.4 1.4q-0.6 0.5-1.2 0.8-0.7 0.3-1.5 0.3zm7.3 0q-1 0-1.8-0.5-0.9-0.4-1.3-1.2-0.5-0.8-0.5-1.8 0-1 0.5-1.8 0.4-0.8 1.3-1.2 0.8-0.5 1.8-0.5 1.1 0 1.9 0.5 0.8 0.4 1.3 1.2 0.5 0.8 0.5 1.8 0 1-0.5 1.8-0.5 0.8-1.3 1.2-0.8 0.5-1.9 0.5zm0-1.9q0.5 0 0.8-0.2 0.4-0.2 0.6-0.6 0.2-0.3 0.2-0.8 0-0.5-0.2-0.8-0.2-0.4-0.6-0.6-0.3-0.2-0.8-0.2-0.4 0-0.7 0.2-0.4 0.2-0.6 0.6-0.2 0.3-0.2 0.8 0 0.5 0.2 0.8 0.2 0.4 0.6 0.6 0.3 0.2 0.7 0.2zm6.6 1.9q-0.5 0-0.9-0.4-0.4-0.3-0.4-0.9 0-0.5 0.4-0.9 0.4-0.3 0.9-0.3 0.5 0 0.9 0.3 0.3 0.4 0.3 0.9 0 0.6-0.3 0.9-0.4 0.4-0.9 0.4zm5.6-6.8v6.7h-2.1v-6.7zm-1.1-1q-0.5 0-0.8-0.3-0.3-0.3-0.3-0.8 0-0.5 0.3-0.8 0.3-0.4 0.8-0.4 0.5 0 0.9 0.4 0.3 0.3 0.3 0.8 0 0.5-0.3 0.8-0.4 0.3-0.9 0.3zm7.9 7.2q-0.2 0.2-0.5 0.3-0.6 0.3-1.3 0.3-0.9 0-1.7-0.5-0.7-0.4-1.1-1.2-0.5-0.8-0.5-1.8 0-1 0.5-1.8 0.4-0.8 1.1-1.2 0.8-0.5 1.7-0.5 0.7 0 1.3 0.3 0.2 0.1 0.5 0.3v-3.7h2.1v10h-2.1zm-1.4-1.3q0.4 0 0.8-0.2 0.3-0.2 0.5-0.6 0.2-0.3 0.2-0.8 0-0.5-0.2-0.8-0.2-0.4-0.5-0.6-0.4-0.2-0.8-0.2-0.4 0-0.8 0.2-0.3 0.2-0.5 0.6-0.2 0.4-0.2 0.8 0 0.5 0.2 0.8 0.2 0.4 0.5 0.6 0.3 0.2 0.8 0.2z"></path></g><g><path fill-rule="evenodd" class="s1" d="m88.1 36.5l-2.5 8.7h-3.7l-4.9-15.7h4.4l2.4 8.5 2.5-8.5h3.6l2.4 8.6 2.5-8.6h4.3l-4.9 15.7h-3.6zm24.9 8.7h-12v-15.7h11.9v3.7h-7.5v2.2h6.8v3.6h-6.8v2.6h7.6zm9.8 0h-7.3v-15.7h7.5q1.5 0 2.5 0.5 1.1 0.6 1.7 1.5 0.6 0.9 0.6 2.1 0 1.7-1.2 2.8-0.3 0.2-0.6 0.4 0.5 0.3 0.9 0.6 1.3 1.2 1.3 3.1 0 1.4-0.7 2.5-0.7 1-1.9 1.6-1.2 0.6-2.8 0.6zm-2.9-12.6v3h1.9q0.7 0 1.2-0.4 0.4-0.3 0.4-1.1 0-0.7-0.4-1.1-0.5-0.4-1.2-0.4zm0 6v3.4h2.1q0.9 0 1.4-0.4 0.5-0.5 0.5-1.3 0-0.5-0.2-0.9-0.3-0.4-0.7-0.6-0.4-0.2-1-0.2zm22 6.6h-6.7v-15.7h6.6q1.9 0 3.4 0.5 1.6 0.6 2.7 1.6 1.2 1 1.8 2.5 0.6 1.4 0.6 3.2 0 1.8-0.6 3.3-0.6 1.4-1.8 2.4-1.1 1.1-2.6 1.6-1.6 0.6-3.4 0.6zm-2.3-12v8.2h2.2q1.3 0 2.2-0.4 0.9-0.5 1.4-1.4 0.4-0.9 0.4-2.3 0-1.4-0.4-2.3-0.5-0.9-1.4-1.3-0.9-0.5-2.2-0.5zm24.5 12h-12v-15.7h11.9v3.6h-7.5v2.3h6.8v3.6h-6.8v2.5h7.6zm7.7 0.3q-2 0-3.5-0.6-1.5-0.6-2.8-1.9l2.8-2.7q0.8 0.8 1.8 1.2 0.9 0.5 2 0.5 0.9 0 1.4-0.3 0.4-0.3 0.4-0.8 0-0.5-0.4-0.8-0.4-0.3-1-0.6-0.7-0.2-1.4-0.5-0.8-0.2-1.6-0.6-0.8-0.4-1.4-0.9-0.7-0.6-1.1-1.4-0.4-0.8-0.4-2 0-1.5 0.8-2.6 0.7-1.1 2-1.7 1.3-0.6 3.1-0.6 1.8 0 3.3 0.6 1.5 0.6 2.5 1.6l-2.8 2.8q-0.7-0.7-1.4-1.1-0.8-0.3-1.6-0.3-0.7 0-1.1 0.2-0.4 0.2-0.4 0.7 0 0.4 0.4 0.7 0.4 0.3 1 0.6 0.7 0.2 1.5 0.5 0.7 0.2 1.5 0.6 0.8 0.4 1.4 0.9 0.7 0.6 1.1 1.4 0.4 0.9 0.4 2.1 0 2.4-1.7 3.7-1.7 1.3-4.8 1.3zm13.1-16v15.7h-4.4v-15.7zm14.2 10.1l-3.9-0.1v-3.5h8.7v0.6q0 2.8-1.1 4.8-1 2-2.8 3-1.9 1.1-4.3 1.1-1.8 0-3.4-0.6-1.5-0.6-2.7-1.7-1.1-1.1-1.8-2.6-0.6-1.5-0.6-3.2 0-1.8 0.7-3.3 0.6-1.5 1.8-2.5 1.2-1.1 2.8-1.7 1.6-0.7 3.4-0.7 2.2 0 3.9 0.8 1.7 0.7 2.8 2l-3 3q-0.8-0.9-1.7-1.4-0.8-0.5-2.1-0.5-1.1 0-2.1 0.5-0.9 0.6-1.5 1.5-0.5 1-0.5 2.2 0 1.3 0.5 2.3 0.5 0.9 1.4 1.5 0.9 0.5 2.2 0.5 1.2 0 2-0.5 0.8-0.4 1.2-1.3 0.1-0.1 0.1-0.2zm11.3-2.4v8h-4.4v-15.7h3l6.6 8.3v-8.3h4.4v15.7h-3.3zm-125.8-15h-7.2v-15.6h7.5q1.4 0 2.5 0.5 1.1 0.5 1.6 1.5 0.6 0.9 0.6 2.1 0 1.7-1.1 2.7-0.3 0.3-0.6 0.5 0.5 0.2 0.8 0.6 1.4 1.2 1.4 3.1 0 1.4-0.7 2.4-0.7 1-1.9 1.6-1.3 0.6-2.9 0.6zm-2.9-12.5v2.9h2q0.7 0 1.1-0.3 0.5-0.4 0.5-1.1 0-0.8-0.5-1.1-0.4-0.4-1.1-0.4zm0 6v3.3h2.1q0.8 0 1.3-0.4 0.5-0.5 0.5-1.2 0-0.6-0.2-1-0.2-0.3-0.6-0.5-0.4-0.2-1-0.2zm14.3 3.9l-0.9 2.6h-4.5l6-15.6h4.4l5.9 15.6h-4.5l-0.9-2.6zm4.4-3.5l-1.6-4.8-1.6 4.8zm19.2 6.1h-10.9v-15.6h4.4v11.9h6.5zm6.8-15.7v15.7h-4.4v-15.7z"></path></g><g><path fill-rule="evenodd" class="s0" d="m32.8 65h-0.6c-2.7-0.1-5.3-0.1-7.7-0.3l16.9-16.9q1-0.9 1.5-2.2l11.9-31.1c1.4-3.8-0.5-5.7-4.3-4.3l-31.1 11.9q-1.3 0.5-2.3 1.5l-16.9 16.9c-0.2-2.6-0.2-5.2-0.2-8 0-10.8 0.6-19.6 6.8-25.7 6.1-6.1 14.9-6.8 25.7-6.8 10.8 0 19.6 0.7 25.7 6.8 6.2 6.1 6.8 14.9 6.8 25.7 0 10.8-0.6 19.6-6.8 25.7-6 6.1-14.8 6.7-25.4 6.8zm-32.2-20.4l16.1-16c0.4-0.4 0.9-0.6 1.4-0.6 0.5 0 1 0.2 1.4 0.6l1.6 1.5c0.7 0.8 0.7 2 0 2.8l-18.7 18.6c-0.8-2.1-1.4-4.4-1.8-6.9zm12.8 17.9l18.7-18.6c0.3-0.4 0.8-0.6 1.3-0.6 0.6 0 1.1 0.2 1.4 0.6l1.6 1.6c0.8 0.7 0.8 2 0 2.7l-16.1 16.1c-2.5-0.4-4.8-0.9-6.9-1.8zm27.1-43.8l5.7 5.8c0.6 0.5 0.8 1.3 0.5 2.1l-5.8 14.9c-0.2 0.6-0.7 1.1-1.4 1.2-0.6 0.2-1.3 0-1.8-0.5l-14.9-14.9c-0.5-0.5-0.7-1.2-0.6-1.8 0.2-0.7 0.6-1.2 1.2-1.4l15-5.8c0.7-0.3 1.6-0.1 2.1 0.4z"></path></g></g></g></svg>